<svg id="Capa_1" enable-background="new 0 0 512 512" height="512" viewBox="0 0 512 512" width="512" xmlns="http://www.w3.org/2000/svg"><g><path d="m478.992 418.207c3.188-11.591 12.318-20.72 23.908-23.908 5.318-1.463 9.1-6.154 9.1-11.671v-200.32c0-5.516-3.782-10.207-9.1-11.671-11.591-3.188-20.72-12.318-23.908-23.908-1.463-5.318-6.154-9.1-11.671-9.1h-92.694l-34.822 21.535-160.837 243.604 4.402 24.539h283.951c5.516 0 10.208-3.782 11.671-9.1z" fill="#f6e266"/><path d="m502.9 170.638c-11.591-3.188-20.72-12.318-23.908-23.908-1.463-5.318-6.154-9.1-11.671-9.1h-27.778c5.516 0 10.207 3.782 11.671 9.1 3.188 11.591 12.318 20.72 23.908 23.908 5.318 1.463 9.1 6.154 9.1 11.671v200.319c0 5.516-3.781 10.208-9.1 11.671-11.591 3.188-20.72 12.318-23.908 23.908-1.463 5.318-6.154 9.1-11.671 9.1h27.778c5.516 0 10.207-3.782 11.671-9.1 3.188-11.591 12.318-20.72 23.908-23.908 5.318-1.463 9.1-6.154 9.1-11.671v-200.32c0-5.516-3.782-10.207-9.1-11.67z" fill="#ecbe6b"/><path d="m44.679 137.629c-5.516 0-10.207 3.782-11.671 9.1-3.188 11.591-12.317 20.721-23.908 23.909-5.318 1.463-9.1 6.154-9.1 11.671v200.319c0 5.516 3.782 10.208 9.1 11.671 11.591 3.188 20.72 12.318 23.908 23.908 1.463 5.318 6.154 9.1 11.671 9.1h138.691l191.257-289.678z" fill="#dd636e"/><path d="m346.247 137.629-191.257 289.678h28.38l191.257-289.678z" fill="#c63d4f"/><g><g><g><path d="m362.994 386.765c-9.367 0-14.89-1.038-23.545-6.7-3.57-2.336-4.571-7.125-2.235-10.696 2.336-3.57 7.125-4.57 10.696-2.235 5.882 3.849 8.275 4.236 15.914 4.176 7.848-.052 12.402-5.903 13.313-11.318.451-2.678.626-9.215-7.447-12.068-11.947-4.223-18.857-7.543-23.85-11.46-6.033-4.731-8.792-12.922-7.199-21.372 1.731-9.186 8.132-16.496 16.704-19.077 16.098-4.845 31.861 2.913 32.524 3.245 3.814 1.913 5.355 6.556 3.441 10.37-1.908 3.805-6.534 5.349-10.342 3.456-.214-.105-11.098-5.309-21.166-2.275-3.619 1.09-5.459 4.404-5.976 7.143-.512 2.718.097 5.211 1.55 6.351 4.436 3.479 12.329 6.527 19.465 9.049 12.671 4.479 19.718 16.214 17.535 29.2-2.009 11.949-12.427 24.102-28.45 24.208-.315.002-.626.003-.932.003z" fill="#2b4d66"/></g></g><g><g><path d="m363.875 397.926c-4.268 0-7.726-3.459-7.726-7.726v-98.243c0-4.268 3.459-7.726 7.726-7.726s7.726 3.459 7.726 7.726v98.243c0 4.267-3.459 7.726-7.726 7.726z" fill="#2b4d66"/></g></g></g><g><g><path d="m94.425 270.964c-.997 0-2.01-.194-2.987-.604-3.935-1.652-5.786-6.18-4.135-10.115l31.304-74.591c1.651-3.935 6.182-5.785 10.115-4.135 3.935 1.652 5.786 6.18 4.135 10.115l-31.304 74.591c-1.241 2.958-4.11 4.739-7.128 4.739z" fill="#ecf4ff"/></g><g><path d="m82.747 225.041c-11.887 0-21.558-10.676-21.558-23.799 0-13.124 9.671-23.8 21.558-23.8 11.886 0 21.557 10.676 21.557 23.8 0 13.123-9.671 23.799-21.557 23.799zm0-32.146c-3.31 0-6.106 3.823-6.106 8.347s2.796 8.346 6.106 8.346c3.309 0 6.105-3.822 6.105-8.346s-2.796-8.347-6.105-8.347z" fill="#ecf4ff"/></g><g><path d="m136.402 276.04c-11.887 0-21.558-10.676-21.558-23.8s9.671-23.8 21.558-23.8 21.558 10.676 21.558 23.8-9.671 23.8-21.558 23.8zm0-32.147c-3.31 0-6.106 3.823-6.106 8.347s2.796 8.347 6.106 8.347 6.106-3.823 6.106-8.347-2.796-8.347-6.106-8.347z" fill="#ecf4ff"/></g></g><g><path d="m469.233 229.573h-63.589c-4.268 0-7.726-3.459-7.726-7.726s3.459-7.726 7.726-7.726h63.589c4.268 0 7.726 3.459 7.726 7.726s-3.458 7.726-7.726 7.726z" fill="#2b4d66"/></g><g><path d="m469.233 259.415h-84.192c-4.268 0-7.726-3.459-7.726-7.726s3.459-7.726 7.726-7.726h84.192c4.268 0 7.726 3.459 7.726 7.726s-3.458 7.726-7.726 7.726z" fill="#2b4d66"/></g><g><path d="m135.239 343.902h-66.324c-4.268 0-7.726-3.459-7.726-7.726s3.459-7.726 7.726-7.726h66.324c4.268 0 7.726 3.459 7.726 7.726s-3.458 7.726-7.726 7.726z" fill="#ecf4ff"/></g><g><path d="m157.903 377.523h-88.988c-4.268 0-7.726-3.459-7.726-7.726s3.459-7.726 7.726-7.726h88.988c4.268 0 7.726 3.459 7.726 7.726s-3.458 7.726-7.726 7.726z" fill="#ecf4ff"/></g><g><g><path d="m353.981 145.359h-45.541c-16.725 0-30.333-13.608-30.333-30.333s13.608-30.333 30.333-30.333h22.935c16.725 0 30.333 13.608 30.333 30.333v22.607c-.001 4.268-3.46 7.726-7.727 7.726zm-45.542-45.213c-8.205 0-14.88 6.675-14.88 14.88s6.675 14.88 14.88 14.88h37.815v-14.88c0-8.205-6.675-14.88-14.88-14.88z" fill="#eab14d"/></g><g><path d="m399.522 145.359h-45.541c-4.268 0-7.726-3.459-7.726-7.726v-22.607c0-16.725 13.608-30.333 30.333-30.333h22.935c16.725 0 30.333 13.608 30.333 30.333s-13.609 30.333-30.334 30.333zm-37.815-15.452h37.815c8.205 0 14.88-6.675 14.88-14.88s-6.675-14.88-14.88-14.88h-22.935c-8.205 0-14.88 6.675-14.88 14.88z" fill="#eab14d"/></g><g><path d="m304.858 201.696c-3.817 0-7.136-2.828-7.65-6.715-.558-4.23 2.418-8.113 6.648-8.672l8.421-1.113c2.02-.267 3.753-1.437 4.755-3.211 1.003-1.774 1.111-3.862.297-5.729-4.099-9.405-1.201-20.234 7.047-26.336l25.011-18.499c3.431-2.537 8.268-1.813 10.807 1.618 2.537 3.431 1.813 8.27-1.618 10.807l-25.011 18.498c-2.424 1.793-3.276 4.975-2.071 7.738 2.772 6.357 2.404 13.466-1.007 19.504s-9.311 10.022-16.185 10.931l-8.421 1.113c-.344.044-.685.066-1.023.066z" fill="#eab14d"/></g><g><path d="m403.103 201.696c-.338 0-.678-.022-1.022-.067l-8.421-1.113c-6.875-.908-12.775-4.892-16.186-10.932-3.41-6.038-3.778-13.148-1.006-19.504 1.204-2.763.352-5.945-2.071-7.738l-25.011-18.497c-3.431-2.537-4.155-7.376-1.618-10.807s7.376-4.155 10.807-1.618l25.011 18.498c8.249 6.103 11.146 16.932 7.047 26.336-.814 1.868-.706 3.957.296 5.73 1.002 1.774 2.735 2.945 4.756 3.211l8.421 1.113c4.23.559 7.206 4.442 6.648 8.672-.515 3.887-3.835 6.716-7.651 6.716z" fill="#eab14d"/></g></g></g></svg>